<svg xmlns="http://www.w3.org/2000/svg" width="205" height="155.403" viewBox="0 0 205 155.403">
  <g id="Group_10" data-name="Group 10" transform="translate(-111 -1678.597)">
    <path id="Path_19" data-name="Path 19" d="M107.194,222.79A46.291,46.291,0,0,1,60.9,176.5H8v79.355H206.387V176.5h-52.9A46.291,46.291,0,0,1,107.194,222.79ZM41.065,242.629" transform="translate(106.307 1574.839)" fill="#85c2ff"/>
    <g id="Group_9" data-name="Group 9" transform="translate(111 1678.597)">
      <path id="Path_20" data-name="Path 20" d="M204.785,72.065,178.333,2.629A3.307,3.307,0,0,0,175.241.5H29.758a3.307,3.307,0,0,0-3.092,2.129L.214,72.065a3.334,3.334,0,0,0-.192,1.057c0,.044-.023.076-.023.119V152.6A3.307,3.307,0,0,0,3.306,155.9H201.693A3.307,3.307,0,0,0,205,152.6V73.242c0-.044-.023-.076-.023-.119A3.334,3.334,0,0,0,204.785,72.065ZM32.036,7.113H172.964l23.931,62.823H148.79a3.307,3.307,0,0,0-3.306,3.306,42.984,42.984,0,1,1-85.968,0,3.307,3.307,0,0,0-3.306-3.306H8.1ZM198.386,149.29H6.612V76.548h46.4a49.6,49.6,0,0,0,98.974,0h46.4Zm0,0" transform="translate(0 -0.5)" fill="#057cf5"/>
      <path id="Path_21" data-name="Path 21" d="M41.919,309.726H38.613v-9.919a3.306,3.306,0,1,0-6.613,0v13.226a3.307,3.307,0,0,0,3.306,3.306h6.613a3.306,3.306,0,1,0,0-6.613Zm0,0" transform="translate(-18.774 -174.161)" fill="#057cf5"/>
      <path id="Path_22" data-name="Path 22" d="M89.919,328.5H83.306a3.306,3.306,0,0,0,0,6.613h6.613a3.306,3.306,0,0,0,0-6.613Zm0,0" transform="translate(-46.935 -192.935)" fill="#057cf5"/>
    </g>
  </g>
</svg>
