<svg xmlns="http://www.w3.org/2000/svg" width="32.621" height="25.868" viewBox="0 0 32.621 25.868">
  <g id="mail-unread-outline" transform="translate(-2.25 -4.508)">
    <path id="Path_4" data-name="Path 4" d="M22.5,6.75H6.188A2.813,2.813,0,0,0,3.375,9.563V26.438a2.813,2.813,0,0,0,2.813,2.813H29.724a2.813,2.813,0,0,0,2.813-2.813V16.805" fill="none" stroke="#3d4165" stroke-linecap="round" stroke-linejoin="round" stroke-width="2.25"/>
    <path id="Path_5" data-name="Path 5" d="M7.875,11.25,18,19.125l6.117-4.617" fill="none" stroke="#3d4165" stroke-linecap="round" stroke-linejoin="round" stroke-width="2.25"/>
    <path id="Path_6" data-name="Path 6" d="M33.743,9a3.372,3.372,0,1,1-3.372-3.372A3.371,3.371,0,0,1,33.743,9Z" fill="#3d4165"/>
    <path id="Path_7" data-name="Path 7" d="M30.375,13.5a4.5,4.5,0,1,1,4.5-4.5A4.5,4.5,0,0,1,30.375,13.5Zm0-6.743a2.25,2.25,0,1,0,2.246,2.25,2.25,2.25,0,0,0-2.246-2.25Z" fill="#3d4165"/>
  </g>
</svg>
